<mxfile host="app.diagrams.net" modified="2023-09-20T13:41:12.835Z" agent="Mozilla/5.0 (X11; Linux x86_64) AppleWebKit/537.36 (KHTML, like Gecko) Chrome/111.0.0.0 Safari/537.36" version="21.7.5" etag="OJn9nJGM1mvQ9A78OUoU" type="github">
  <diagram name="Page-1" id="fDxjnJhnE5thtefLtsN8">
    <mxGraphModel>
      <root>
        <mxCell id="0" />
        <mxCell id="1" parent="0" />
      </root>
    </mxGraphModel>
  </diagram>
</mxfile>
